<svg width="960" height="640" viewBox="0 0 960 640" fill="none" xmlns="http://www.w3.org/2000/svg">
  <rect width="960" height="640" rx="24" fill="#F5F0E8"/>
  <rect x="48" y="48" width="378" height="544" rx="20" fill="#FCFAF6" stroke="#C8BFAF" stroke-width="2"/>
  <rect x="534" y="48" width="378" height="544" rx="20" fill="#FCFAF6" stroke="#C8BFAF" stroke-width="2"/>
  <text x="82" y="108" fill="#6B6458" font-family="Arial, sans-serif" font-size="22">Supervisor message</text>
  <rect x="82" y="146" width="294" height="86" rx="18" fill="#EDE7D9"/>
  <rect x="128" y="252" width="248" height="76" rx="18" fill="#1A1814"/>
  <rect x="82" y="348" width="268" height="92" rx="18" fill="#E0D9CC"/>
  <text x="568" y="108" fill="#6B6458" font-family="Arial, sans-serif" font-size="22">Structured calculator</text>
  <rect x="568" y="146" width="312" height="54" rx="12" fill="#EDE7D9"/>
  <rect x="568" y="222" width="312" height="54" rx="12" fill="#EDE7D9"/>
  <rect x="568" y="298" width="312" height="54" rx="12" fill="#EDE7D9"/>
  <rect x="568" y="386" width="180" height="62" rx="16" fill="#1A1814"/>
  <path d="M446 320H514" stroke="#8B1A1A" stroke-width="4" stroke-linecap="round"/>
  <path d="M494 298L514 320L494 342" stroke="#8B1A1A" stroke-width="4" stroke-linecap="round" stroke-linejoin="round"/>
</svg>
